<svg width="21" height="20" viewBox="0 0 21 20" fill="none" xmlns="http://www.w3.org/2000/svg">
<path fill-rule="evenodd" clip-rule="evenodd" d="M17.8334 10C17.8334 14.1421 14.4755 17.5 10.3334 17.5C6.19124 17.5 2.83337 14.1421 2.83337 10C2.83337 5.85786 6.19124 2.5 10.3334 2.5C14.4755 2.5 17.8334 5.85786 17.8334 10ZM16.3341 9.99963C16.3341 13.3133 13.6478 15.9996 10.3341 15.9996C7.0204 15.9996 4.33411 13.3133 4.33411 9.99963C4.33411 6.68593 7.0204 3.99963 10.3341 3.99963C13.6478 3.99963 16.3341 6.68593 16.3341 9.99963ZM10.1362 6.6094C10.1362 7.22197 10.6328 7.71856 11.2454 7.71856C11.858 7.71856 12.3545 7.22197 12.3545 6.6094C12.3545 5.99683 11.858 5.50024 11.2454 5.50024C10.6328 5.50024 10.1362 5.99683 10.1362 6.6094ZM11.2983 9.56977C11.3602 9.38266 11.3769 9.18352 11.347 8.9887C11.2202 8.3194 10.2695 8.33969 10.0284 8.42107C9.25024 8.68373 8.08289 9.93687 8.08289 9.93687V10.6911C8.65014 10.2696 9.55206 9.65229 9.42655 9.93687C9.42655 9.93687 8.22866 12.7763 8.13181 13.5011C8.03951 14.192 8.69451 14.5003 9.09697 14.5003C9.99994 14.5003 11.347 12.9791 11.347 12.9791V12.3992C11.347 12.3992 9.9014 13.2471 9.98113 12.9903C10.028 12.8393 10.4393 11.7841 10.7913 10.881L10.7915 10.8806C11.0382 10.2478 11.2557 9.68968 11.2983 9.56977Z" fill="#FFFCE4"/>
</svg>
