<svg width="215" height="342" viewBox="0 0 215 342" fill="none" xmlns="http://www.w3.org/2000/svg">
<g opacity="0.34" clip-path="url(#clip0_4026_4012)">
<path fill-rule="evenodd" clip-rule="evenodd" d="M71.7752 173.715H0.0705566V171.427H71.7752V173.715Z" fill="#F2FF5E"/>
<ellipse cx="71.5752" cy="172.573" rx="1.07079" ry="1.06875" transform="rotate(180 71.5752 172.573)" fill="#F9A6E1"/>
<path opacity="0.993581" fill-rule="evenodd" clip-rule="evenodd" d="M21.0517 238.142C35.2411 224.508 54.6823 212.253 76.9763 212.253H126.949V214.541H76.9763C55.1689 214.541 36.0818 226.534 22.0802 239.988C15.0831 246.712 9.37299 253.784 5.24743 259.869C3.18451 262.911 1.52362 265.699 0.298187 268.063C-0.93766 270.448 -1.69701 272.339 -2.00243 273.6L-3.66228 272.906C-3.27969 271.327 -2.40718 269.218 -1.14177 266.776C0.134064 264.314 1.84384 261.449 3.94656 258.348C8.15228 252.144 13.9533 244.963 21.0517 238.142Z" fill="#3736DC"/>
<path fill-rule="evenodd" clip-rule="evenodd" d="M-3.65906 215.273C14.3043 196.834 36.4483 186.818 59.2475 186.818H118.643V189.105H59.2475C36.8371 189.105 15.0707 198.951 -2.58643 217.075L-3.65906 215.273Z" fill="#089E69"/>
<path fill-rule="evenodd" clip-rule="evenodd" d="M-3.99377 364.126C-3.99377 293.589 39.5471 236.407 93.2575 236.407H158.905V238.695H93.2575C40.5091 238.695 -2.25196 294.853 -2.25196 364.126H-3.99377Z" fill="#F96E47"/>
<ellipse cx="159.975" cy="237.479" rx="1.07079" ry="1.06876" fill="#19B3B3"/>
<ellipse cx="168.689" cy="237.479" rx="1.07079" ry="1.06876" fill="#19B3B3"/>
<ellipse cx="177.402" cy="237.479" rx="1.07079" ry="1.06876" fill="#19B3B3"/>
<ellipse cx="181.734" cy="237.476" rx="1.07079" ry="1.06875" fill="#19B3B3"/>
<path fill-rule="evenodd" clip-rule="evenodd" d="M-4.23657 129.958C10.4794 144.924 28.5644 153.045 47.1768 153.045H52.0347V150.757H47.1768C28.9504 150.757 11.2406 142.805 -3.17012 128.15L-4.23657 129.958Z" fill="#F9A6E1"/>
<path fill-rule="evenodd" clip-rule="evenodd" d="M65.2838 136.058L88.38 137.227L88.4471 134.942L65.3509 133.772C33.986 132.183 6.30058 106.4 -5.21559 68.0526L-6.83594 68.8919C4.93371 108.083 33.2285 134.434 65.2838 136.058Z" fill="#089E69"/>
<ellipse cx="88.4469" cy="136.159" rx="1.07079" ry="1.06875" fill="#F9A6E1"/>
<ellipse cx="123.14" cy="187.886" rx="1.07079" ry="1.06875" fill="#A489F3"/>
<ellipse cx="70.1239" cy="151.985" rx="1.07079" ry="1.06876" transform="rotate(180 70.1239 151.985)" fill="#089E69"/>
<ellipse cx="60.8342" cy="151.985" rx="1.07079" ry="1.06876" transform="rotate(180 60.8342 151.985)" fill="#089E69"/>
<ellipse cx="51.5444" cy="151.985" rx="1.07079" ry="1.06876" transform="rotate(180 51.5444 151.985)" fill="#089E69"/>
<path fill-rule="evenodd" clip-rule="evenodd" d="M-3.1228 -8.77846C-3.1228 61.7059 40.3855 118.845 94.0557 118.845L180.963 118.845V116.557L94.0557 116.557C41.3475 116.557 -1.38099 60.4426 -1.38099 -8.77846H-3.1228Z" fill="#A489F3"/>
<ellipse cx="163.83" cy="117.776" rx="1.07079" ry="1.06875" fill="#F96E47"/>
<ellipse cx="181.391" cy="117.776" rx="1.07079" ry="1.06875" fill="#F96E47"/>
<ellipse cx="133.829" cy="213.109" rx="1.07079" ry="1.06876" fill="#089E69"/>
<ellipse cx="126.995" cy="213.109" rx="1.07079" ry="1.06876" fill="#089E69"/>
</g>
<defs>
<clipPath id="clip0_4026_4012">
<rect width="214.157" height="342" fill="white"/>
</clipPath>
</defs>
</svg>
