<svg width="188" height="40" viewBox="0 0 188 40" fill="none" xmlns="http://www.w3.org/2000/svg">
<path fill-rule="evenodd" clip-rule="evenodd" d="M3.19702 18.4376H8.96419C9.7223 13.1376 14.2804 9.0634 19.79 9.0634C25.2997 9.0634 29.8578 13.1376 30.6159 18.4376H36.3831C35.5954 9.96625 28.4672 3.3347 19.79 3.3347C11.1129 3.3347 3.98466 9.96625 3.19702 18.4376ZM36.3831 21.5624H30.6159C29.8578 26.8624 25.2997 30.9366 19.79 30.9366C14.2804 30.9366 9.7223 26.8624 8.96419 21.5624H3.19702C3.98466 30.0337 11.1129 36.6653 19.79 36.6653C28.4672 36.6653 35.5954 30.0337 36.3831 21.5624ZM12.1344 21.5624C12.8582 25.1281 16.0107 27.8119 19.79 27.8119C23.5693 27.8119 26.7218 25.1281 27.4456 21.5624H12.1344ZM27.4456 18.4376C26.7218 14.8719 23.5693 12.1881 19.79 12.1881C16.0107 12.1881 12.8582 14.8719 12.1344 18.4376H27.4456ZM0 20C0 9.07026 8.8603 0.209961 19.79 0.209961C30.7198 0.209961 39.5801 9.07026 39.5801 20C39.5801 30.9297 30.7198 39.79 19.79 39.79C8.8603 39.79 0 30.9297 0 20Z" fill="#FFFCE4"/>
<path d="M63.1921 19.5202C65.4558 20.8243 66.5877 22.7927 66.5877 25.4255C66.5877 27.6154 65.8126 29.4116 64.2625 30.8141C62.7123 32.2166 60.8054 32.9178 58.5417 32.9178H47.5801V7.08226H57.7667C59.9812 7.08226 61.8389 7.77121 63.3398 9.14911C64.8653 10.5024 65.6281 12.2371 65.6281 14.3531C65.6281 16.4938 64.8161 18.2162 63.1921 19.5202ZM57.7667 11.8434H52.6734V17.5272H57.7667C58.554 17.5272 59.2061 17.2566 59.7228 16.7152C60.2641 16.1739 60.5348 15.4973 60.5348 14.6853C60.5348 13.8733 60.2764 13.1967 59.7597 12.6554C59.243 12.114 58.5786 11.8434 57.7667 11.8434ZM58.5417 28.1567C59.4029 28.1567 60.1165 27.8737 60.6824 27.3078C61.2483 26.7173 61.5313 25.9791 61.5313 25.0933C61.5313 24.2322 61.2483 23.5186 60.6824 22.9527C60.1165 22.3622 59.4029 22.0669 58.5417 22.0669H52.6734V28.1567H58.5417Z" fill="#FFFCE4"/>
<path d="M84.0993 32.9178L78.8953 23.9492H75.02V32.9178H69.9267V7.08226H80.2609C82.6476 7.08226 84.6776 7.91884 86.3507 9.592C88.0239 11.2652 88.8605 13.2828 88.8605 15.6449C88.8605 17.2443 88.4053 18.7329 87.4949 20.1108C86.5845 21.4641 85.3788 22.4852 83.8779 23.1741L89.5986 32.9178H84.0993ZM75.02 11.8434V19.4833H80.2609C81.2205 19.4833 82.0448 19.1143 82.7337 18.3761C83.4227 17.6133 83.7672 16.7029 83.7672 15.6449C83.7672 14.5869 83.4227 13.6888 82.7337 12.9506C82.0448 12.2125 81.2205 11.8434 80.2609 11.8434H75.02Z" fill="#FFFCE4"/>
<path d="M97.691 28.046H108.579V32.9178H92.5977V7.08226H108.394V11.9541H97.691V17.4534H107.472V22.2514H97.691V28.046Z" fill="#FFFCE4"/>
<path d="M118.554 32.9178L109.881 7.08226H115.417L121.728 26.9387L128.003 7.08226H133.576L124.865 32.9178H118.554Z" fill="#FFFCE4"/>
<path d="M136.065 7.08226H141.159V32.9178H136.065V7.08226Z" fill="#FFFCE4"/>
<path d="M154.366 33.4345C151.807 33.4345 149.654 32.8686 147.907 31.7368C146.16 30.5803 144.93 29.0179 144.216 27.0495L148.571 24.5028C149.58 27.1356 151.561 28.452 154.513 28.452C155.94 28.452 156.986 28.1936 157.651 27.6769C158.315 27.1602 158.647 26.5082 158.647 25.7208C158.647 24.8104 158.241 24.1091 157.429 23.617C156.617 23.1003 155.165 22.5467 153.074 21.9562C151.918 21.6117 150.933 21.2672 150.121 20.9227C149.334 20.5783 148.534 20.1231 147.722 19.5572C146.935 18.9666 146.332 18.2285 145.914 17.3427C145.496 16.4569 145.286 15.4235 145.286 14.2424C145.286 11.9049 146.111 10.0472 147.759 8.66931C149.432 7.2668 151.438 6.56555 153.775 6.56555C155.867 6.56555 157.7 7.08226 159.274 8.11569C160.874 9.1245 162.116 10.5393 163.002 12.3601L158.721 14.8329C157.687 12.6185 156.039 11.5112 153.775 11.5112C152.717 11.5112 151.881 11.7573 151.265 12.2494C150.675 12.7169 150.38 13.332 150.38 14.0948C150.38 14.9067 150.712 15.5711 151.376 16.0878C152.065 16.5799 153.369 17.1212 155.288 17.7118C156.076 17.9578 156.666 18.1546 157.06 18.3023C157.478 18.4253 158.032 18.6345 158.721 18.9297C159.434 19.2004 159.976 19.4587 160.345 19.7048C160.739 19.9508 161.181 20.283 161.674 20.7013C162.166 21.1196 162.535 21.5502 162.781 21.9931C163.051 22.436 163.273 22.9773 163.445 23.617C163.642 24.2322 163.74 24.9088 163.74 25.647C163.74 28.0337 162.867 29.9283 161.12 31.3308C159.398 32.7333 157.146 33.4345 154.366 33.4345Z" fill="#FFFCE4"/>
</svg>
