<svg width="214" height="342" viewBox="0 0 214 342" fill="none" xmlns="http://www.w3.org/2000/svg">
<g opacity="0.34" clip-path="url(#clip0_4026_4013)">
<path fill-rule="evenodd" clip-rule="evenodd" d="M224.903 -3.91749C224.903 63.8825 183.211 118.845 131.781 118.845L54.2063 118.845V116.558L131.781 116.558C182.252 116.558 223.168 62.6191 223.168 -3.91749H224.903Z" fill="#3736DC"/>
<path fill-rule="evenodd" clip-rule="evenodd" d="M219.479 173.715H148.047V171.427H219.479V173.715Z" fill="#F96E47"/>
<path fill-rule="evenodd" clip-rule="evenodd" d="M223.628 133.367C204.111 146.306 182.568 153.045 160.722 153.045H137.636V150.758H160.722C182.298 150.758 203.574 144.102 222.849 131.324L223.628 133.367Z" fill="#089E69"/>
<path fill-rule="evenodd" clip-rule="evenodd" d="M150.938 206.393L97.8245 205.2L97.7282 207.484L150.842 208.677C185.338 211.203 215.95 238.653 230.406 280.021L231.982 279.063C217.257 236.927 186.075 208.966 150.938 206.393Z" fill="#089E69"/>
<path fill-rule="evenodd" clip-rule="evenodd" d="M166.918 189.373L136.316 186.818L136.206 189.1L166.809 191.656C185.072 193.182 202.232 203.713 214.874 221.155L216.129 219.575C203.185 201.717 185.617 190.935 166.918 189.373Z" fill="#F9A6E1"/>
<path fill-rule="evenodd" clip-rule="evenodd" d="M229.17 360.695C229.17 292.053 186.96 236.407 134.891 236.407H38.8456V238.695H134.891C186.001 238.695 227.434 293.316 227.434 360.695H229.17Z" fill="#A489F3"/>
<ellipse cx="135.158" cy="187.886" rx="1.06671" ry="1.06875" transform="rotate(180 135.158 187.886)" fill="#F96E47"/>
<ellipse cx="125.036" cy="187.886" rx="1.06672" ry="1.06875" transform="rotate(180 125.036 187.886)" fill="#F96E47"/>
<ellipse cx="64.8735" cy="117.776" rx="1.06671" ry="1.06875" transform="rotate(180 64.8735 117.776)" fill="#F96E47"/>
<path fill-rule="evenodd" clip-rule="evenodd" d="M235.966 80.2901C218.107 115.846 187.915 137.227 155.567 137.227L79.1674 137.228V134.94L155.567 134.94C187.332 134.94 216.982 113.943 234.519 79.0272L235.966 80.2901Z" fill="#F2FF5E"/>
<ellipse cx="48.0449" cy="117.776" rx="1.06671" ry="1.06875" transform="rotate(180 48.0449 117.776)" fill="#F96E47"/>
<ellipse cx="10.2576" cy="117.776" rx="1.06671" ry="1.06875" fill="#F96E47"/>
<ellipse cx="38.1458" cy="117.776" rx="1.06671" ry="1.06875" fill="#F96E47"/>
<ellipse cx="24.5772" cy="117.776" rx="1.06671" ry="1.06875" fill="#F96E47"/>
<ellipse cx="35.8588" cy="237.476" rx="1.06671" ry="1.06875" transform="rotate(180 35.8588 237.476)" fill="#F96E47"/>
<ellipse cx="29.0319" cy="237.476" rx="1.06671" ry="1.06875" transform="rotate(180 29.0319 237.476)" fill="#F96E47"/>
<ellipse cx="10.6843" cy="237.476" rx="1.06671" ry="1.06875" transform="rotate(180 10.6843 237.476)" fill="#F96E47"/>
<ellipse cx="147.65" cy="172.496" rx="1.06671" ry="1.06875" fill="#F9A6E1"/>
<ellipse cx="136.414" cy="151.976" rx="1.35117" ry="1.06875" fill="#A489F3"/>
<ellipse cx="103.275" cy="136.159" rx="1.06672" ry="1.06875" fill="#089E69"/>
<ellipse cx="75.5406" cy="136.159" rx="1.06672" ry="1.06875" fill="#089E69"/>
<ellipse cx="49.9395" cy="206.269" rx="1.06671" ry="1.06876" fill="#F2FF5E"/>
<ellipse cx="57.6641" cy="206.269" rx="1.06671" ry="1.06876" fill="#F2FF5E"/>
<ellipse cx="66.5782" cy="206.269" rx="1.06672" ry="1.06876" fill="#F2FF5E"/>
<ellipse cx="75.493" cy="206.269" rx="1.06672" ry="1.06876" fill="#F2FF5E"/>
<ellipse cx="84.4073" cy="206.269" rx="1.06672" ry="1.06876" fill="#F2FF5E"/>
<ellipse cx="93.3358" cy="206.269" rx="1.06672" ry="1.06876" fill="#F2FF5E"/>
</g>
<defs>
<clipPath id="clip0_4026_4013">
<rect width="213.343" height="342" fill="white" transform="translate(0.657227)"/>
</clipPath>
</defs>
</svg>
